<?xml version="1.0" encoding="UTF-8" standalone="no"?>
<!-- Created with Inkscape (http://www.inkscape.org/) -->

<svg
   version="1.1"
   id="svg2"
   width="296.26666"
   height="77.133331"
   viewBox="0 0 296.26666 77.133331"
   xmlns="http://www.w3.org/2000/svg"
   xmlns:svg="http://www.w3.org/2000/svg">
  <defs
     id="defs6" />
  <g
     id="g10"
     transform="matrix(1.3333333,0,0,-1.3333333,0,77.133333)">
    <g
       id="g12"
       transform="scale(0.1)">
      <path
         d="m 771.785,444.023 c 0,38.161 -25.39,63.508 -63.48,63.508 h -29.59 V 380.094 h 29.59 c 38.09,0 63.48,25.98 63.48,63.929 z m 72.653,0 c 0,-75.062 -55.125,-128.828 -132.793,-128.828 h -104.11 v 257.231 h 104.11 c 77.878,0 132.793,-53.235 132.793,-128.403"
         style="fill:#003385;fill-opacity:1;fill-rule:nonzero;stroke:none"
         id="path14" />
      <path
         d="m 970.668,492.141 -28.191,-79.707 h 56.628 z M 1016.4,356.973 h -91.177 l -14.25,-41.778 h -75.942 l 101.047,257.231 h 69.272 l 103.26,-257.231 h -78.04 l -14.17,41.778"
         style="fill:#003385;fill-opacity:1;fill-rule:nonzero;stroke:none"
         id="path16" />
      <path
         d="m 1300.69,380.094 v -64.899 h -163.35 v 257.231 h 71.8 V 380.094 h 91.55"
         style="fill:#003385;fill-opacity:1;fill-rule:nonzero;stroke:none"
         id="path18" />
      <path
         d="m 1489.38,380.094 v -64.899 h -163.35 v 257.231 h 71.8 V 380.094 h 91.55"
         style="fill:#003385;fill-opacity:1;fill-rule:nonzero;stroke:none"
         id="path20" />
      <path
         d="m 1639.95,492.141 -28.18,-79.707 h 56.62 z m 45.74,-135.168 h -91.19 l -14.24,-41.778 h -75.94 l 101.04,257.231 h 69.28 l 103.25,-257.231 h -78.03 l -14.17,41.778"
         style="fill:#003385;fill-opacity:1;fill-rule:nonzero;stroke:none"
         id="path22" />
      <path
         d="m 1770.66,398.258 h 73.1 c 0,-18.375 14.18,-27.32 30.34,-27.32 14.84,0 29.02,7.894 29.02,21.953 0,16.132 -20.03,20.812 -44.51,26.75 -37.18,9.238 -84.64,20.629 -84.64,79.191 0,50.656 37.21,79.676 97.87,79.676 61.67,0 97.03,-31.66 97.03,-83.996 h -71.07 c 0,16.269 -12.12,23.898 -26.81,23.898 -12.63,0 -24.75,-5.465 -24.75,-17.472 0,-14.614 19.38,-19.442 43.61,-25.532 37.85,-9.769 87.36,-22.418 87.36,-81.156 0,-56.184 -43.17,-85.344 -102.9,-85.344 -62.96,0 -103.65,33.282 -103.65,89.352"
         style="fill:#003385;fill-opacity:1;fill-rule:nonzero;stroke:none"
         id="path24" />
      <path
         d="m 730.906,0 c -78.293,0 -136.761,57.9648 -136.761,134.906 0,77.371 58.468,135.332 136.761,135.332 67.41,0 119.629,-44.496 130.082,-109.718 h -71.8 c -8.829,26.378 -31.055,43.507 -58.125,43.507 -36.426,0 -63.141,-29.285 -63.141,-69.113 0,-39.6796 26.715,-68.5468 63.141,-68.5468 28.539,0 50.976,18.5976 58.183,47.1838 h 72.481 C 851.945,45.918 799.422,0.00390625 730.906,0.00390625 V 0"
         style="fill:#003385;fill-opacity:1;fill-rule:nonzero;stroke:none"
         id="path26" />
      <path
         d="m 1026.18,65.9375 c 39.15,0 67.49,28.9219 67.49,69.1755 0,40.254 -28.34,69.176 -67.49,69.176 -39.145,0 -67.91,-29.133 -67.91,-69.172 0,-40.0428 28.765,-69.1756 67.91,-69.1756 z M 1026.18,0 c -82.688,0 -141.696,56.5 -141.696,135.117 0,78.617 59.008,135.121 141.696,135.121 82.48,0 141.28,-56.289 141.28,-135.121 0,-78.824 -58.8,-135.11309375 -141.28,-135.11309375 V 0"
         style="fill:#003385;fill-opacity:1;fill-rule:nonzero;stroke:none"
         id="path28" />
      <path
         d="M 1357.38,71.4063 V 6.50781 H 1194.03 V 263.734 h 71.8 V 71.4063 h 91.55"
         style="fill:#003385;fill-opacity:1;fill-rule:nonzero;stroke:none"
         id="path30" />
      <path
         d="M 1546.87,71.4063 V 6.50781 H 1383.52 V 263.734 h 71.81 V 71.4063 h 91.54"
         style="fill:#003385;fill-opacity:1;fill-rule:nonzero;stroke:none"
         id="path32" />
      <path
         d="M 1740.72,67.9727 V 6.50781 h -167.7 V 263.734 h 164.59 V 202.48 h -94.04 v -37.871 h 84.49 V 106.48 h -84.49 V 67.9727 h 97.15"
         style="fill:#003385;fill-opacity:1;fill-rule:nonzero;stroke:none"
         id="path34" />
      <path
         d="m 2028.17,143.984 c 0,-84.1754 -54.95,-143.9722812 -135.51,-143.9722812 -78.81,0 -137.03,56.6445812 -137.03,134.9062812 0,78.262 57.16,135.332 136.4,135.332 67.42,0 122.58,-42.199 133.46,-101.973 h -74.27 c -9.3,21.668 -32.32,35.602 -58.56,35.602 -38.53,0 -64.49,-27.863 -64.49,-68.965 0,-40.6796 25.54,-68.5429 64.49,-68.5429 27.05,0 50.24,13.0937 58.33,32.9258 h -63.89 v 44.6801 l 141.07,0.007"
         style="fill:#003385;fill-opacity:1;fill-rule:nonzero;stroke:none"
         id="path36" />
      <path
         d="M 2222.01,67.9727 V 6.50781 h -167.7 V 263.734 H 2218.9 V 202.48 h -94.04 v -37.871 h 84.49 V 106.48 h -84.49 V 67.9727 h 97.15"
         style="fill:#003385;fill-opacity:1;fill-rule:nonzero;stroke:none"
         id="path38" />
      <path
         d="m 225.523,149.309 h -65.07 V 264.145 H -0.00390625 V 6.51563 H 232.898 c 161.836,0 279.18,106.13237 291.145,257.62937 H 363.309 C 352.938,194.918 300.414,149.309 225.523,149.309"
         style="fill:#003385;fill-opacity:1;fill-rule:nonzero;stroke:none"
         id="path40" />
      <path
         d="m 160.375,429.691 h 65.078 c 75.227,0 127.899,-44.921 137.93,-114.836 h 160.66 C 512.512,467.004 395.414,572.484 232.824,572.484 H -0.00390625 V 314.855 H 160.375 v 114.836"
         style="fill:#e52626;fill-opacity:1;fill-rule:nonzero;stroke:none"
         id="path42" />
      <path
         d="m 261.109,370.309 18,-55.391 h 58.243 l -47.122,-34.238 18,-55.391 -47.121,34.234 -47.121,-34.234 17.996,55.391 -47.117,34.238 h 58.242 l 18,55.391"
         style="fill:#003385;fill-opacity:1;fill-rule:nonzero;stroke:none"
         id="path44" />
    </g>
  </g>
</svg>
